// Analogue Drums - Big Mono: a set of drum samples, recorded in mono to tape
// http://www.analoguedrums.com/details-bm.php
//
// SFZ mapping created 3 June 2009
// Copyright (C) 2009  Peter L Jones
// Created with Voxengo Leveler, VelLeveler, SciTE and some minor typing...
// Mapping follows natural studio ns_kit7 / Natural Drum Kit NDK format
// Nothing clever, just duplication of groups

// --------------------------------------------------------------------------

// 040:  CLudwigKick-Dyn02.wav (-32.60)
// 041:  CLudwigKick-Dyn01.wav (-32.20)
// 044:  CLudwigKick-Dyn03.wav (-31.30)
// 073:  CLudwigKick-Dyn04.wav (-22.30)
// 077:  CLudwigKick-Dyn05.wav (-21.30)
// 090:  CLudwigKick-Dyn06.wav (-18.60)
// 097:  CLudwigKick-Dyn07.wav (-17.30)
// 110:  CLudwigKick-Dyn08.wav (-15.20)
// 113:  CLudwigKick-Dyn09.wav (-14.70)
// 119:  CLudwigKick-Dyn10.wav (-13.90)
// 123:  CLudwigKick-Dyn11.wav (-13.20)
// 127:  CLudwigKick-Dyn12.wav (-12.70)
<group> volume=-6 loop_mode=one_shot key=11
<region> lovel=001 hivel=044 amp_velcurve_041=1 lorand=0.000 hirand=0.333 sample=..\Wav\CLudwigKick-Dyn01.wav
<region> lovel=001 hivel=044 amp_velcurve_040=1 lorand=0.333 hirand=0.667 sample=..\Wav\CLudwigKick-Dyn02.wav
<region> lovel=001 hivel=044 amp_velcurve_044=1 lorand=0.667 hirand=1.000 sample=..\Wav\CLudwigKick-Dyn03.wav
<region> lovel=045 hivel=077 amp_velcurve_073=1 lorand=0.000 hirand=0.500 sample=..\Wav\CLudwigKick-Dyn04.wav
<region> lovel=045 hivel=077 amp_velcurve_077=1 lorand=0.500 hirand=1.000 sample=..\Wav\CLudwigKick-Dyn05.wav
<region> lovel=078 hivel=090 amp_velcurve_090=1 sample=..\Wav\CLudwigKick-Dyn06.wav
<region> lovel=091 hivel=113 amp_velcurve_097=1 lorand=0.000 hirand=0.333 sample=..\Wav\CLudwigKick-Dyn07.wav
<region> lovel=091 hivel=113 amp_velcurve_110=1 lorand=0.333 hirand=0.667 sample=..\Wav\CLudwigKick-Dyn08.wav
<region> lovel=091 hivel=113 amp_velcurve_113=1 lorand=0.667 hirand=1.000 sample=..\Wav\CLudwigKick-Dyn09.wav
<region> lovel=114 hivel=127 amp_velcurve_119=1 lorand=0.000 hirand=0.333 sample=..\Wav\CLudwigKick-Dyn10.wav
<region> lovel=114 hivel=127 amp_velcurve_123=1 lorand=0.333 hirand=0.667 sample=..\Wav\CLudwigKick-Dyn11.wav
<region> lovel=114 hivel=127 amp_velcurve_127=1 lorand=0.667 hirand=1.000 sample=..\Wav\CLudwigKick-Dyn12.wav
<group> volume=-6 loop_mode=one_shot key=12              
<region> lovel=001 hivel=044 amp_velcurve_041=1 lorand=0.000 hirand=0.333 sample=..\Wav\CLudwigKick-Dyn01.wav
<region> lovel=001 hivel=044 amp_velcurve_040=1 lorand=0.333 hirand=0.667 sample=..\Wav\CLudwigKick-Dyn02.wav
<region> lovel=001 hivel=044 amp_velcurve_044=1 lorand=0.667 hirand=1.000 sample=..\Wav\CLudwigKick-Dyn03.wav
<region> lovel=045 hivel=077 amp_velcurve_073=1 lorand=0.000 hirand=0.500 sample=..\Wav\CLudwigKick-Dyn04.wav
<region> lovel=045 hivel=077 amp_velcurve_077=1 lorand=0.500 hirand=1.000 sample=..\Wav\CLudwigKick-Dyn05.wav
<region> lovel=078 hivel=090 amp_velcurve_090=1 sample=..\Wav\CLudwigKick-Dyn06.wav
<region> lovel=091 hivel=113 amp_velcurve_097=1 lorand=0.000 hirand=0.333 sample=..\Wav\CLudwigKick-Dyn07.wav
<region> lovel=091 hivel=113 amp_velcurve_110=1 lorand=0.333 hirand=0.667 sample=..\Wav\CLudwigKick-Dyn08.wav
<region> lovel=091 hivel=113 amp_velcurve_113=1 lorand=0.667 hirand=1.000 sample=..\Wav\CLudwigKick-Dyn09.wav
<region> lovel=114 hivel=127 amp_velcurve_119=1 lorand=0.000 hirand=0.333 sample=..\Wav\CLudwigKick-Dyn10.wav
<region> lovel=114 hivel=127 amp_velcurve_123=1 lorand=0.333 hirand=0.667 sample=..\Wav\CLudwigKick-Dyn11.wav
<region> lovel=114 hivel=127 amp_velcurve_127=1 lorand=0.667 hirand=1.000 sample=..\Wav\CLudwigKick-Dyn12.wav
<group> volume=-6 loop_mode=one_shot key=35
<region> lovel=001 hivel=044 amp_velcurve_041=1 lorand=0.000 hirand=0.333 sample=..\Wav\CLudwigKick-Dyn01.wav
<region> lovel=001 hivel=044 amp_velcurve_040=1 lorand=0.333 hirand=0.667 sample=..\Wav\CLudwigKick-Dyn02.wav
<region> lovel=001 hivel=044 amp_velcurve_044=1 lorand=0.667 hirand=1.000 sample=..\Wav\CLudwigKick-Dyn03.wav
<region> lovel=045 hivel=077 amp_velcurve_073=1 lorand=0.000 hirand=0.500 sample=..\Wav\CLudwigKick-Dyn04.wav
<region> lovel=045 hivel=077 amp_velcurve_077=1 lorand=0.500 hirand=1.000 sample=..\Wav\CLudwigKick-Dyn05.wav
<region> lovel=078 hivel=090 amp_velcurve_090=1 sample=..\Wav\CLudwigKick-Dyn06.wav
<region> lovel=091 hivel=113 amp_velcurve_097=1 lorand=0.000 hirand=0.333 sample=..\Wav\CLudwigKick-Dyn07.wav
<region> lovel=091 hivel=113 amp_velcurve_110=1 lorand=0.333 hirand=0.667 sample=..\Wav\CLudwigKick-Dyn08.wav
<region> lovel=091 hivel=113 amp_velcurve_113=1 lorand=0.667 hirand=1.000 sample=..\Wav\CLudwigKick-Dyn09.wav
<region> lovel=114 hivel=127 amp_velcurve_119=1 lorand=0.000 hirand=0.333 sample=..\Wav\CLudwigKick-Dyn10.wav
<region> lovel=114 hivel=127 amp_velcurve_123=1 lorand=0.333 hirand=0.667 sample=..\Wav\CLudwigKick-Dyn11.wav
<region> lovel=114 hivel=127 amp_velcurve_127=1 lorand=0.667 hirand=1.000 sample=..\Wav\CLudwigKick-Dyn12.wav
<group> volume=-6 loop_mode=one_shot key=36
<region> lovel=001 hivel=044 amp_velcurve_041=1 lorand=0.000 hirand=0.333 sample=..\Wav\CLudwigKick-Dyn01.wav
<region> lovel=001 hivel=044 amp_velcurve_040=1 lorand=0.333 hirand=0.667 sample=..\Wav\CLudwigKick-Dyn02.wav
<region> lovel=001 hivel=044 amp_velcurve_044=1 lorand=0.667 hirand=1.000 sample=..\Wav\CLudwigKick-Dyn03.wav
<region> lovel=045 hivel=077 amp_velcurve_073=1 lorand=0.000 hirand=0.500 sample=..\Wav\CLudwigKick-Dyn04.wav
<region> lovel=045 hivel=077 amp_velcurve_077=1 lorand=0.500 hirand=1.000 sample=..\Wav\CLudwigKick-Dyn05.wav
<region> lovel=078 hivel=090 amp_velcurve_090=1 sample=..\Wav\CLudwigKick-Dyn06.wav
<region> lovel=091 hivel=113 amp_velcurve_097=1 lorand=0.000 hirand=0.333 sample=..\Wav\CLudwigKick-Dyn07.wav
<region> lovel=091 hivel=113 amp_velcurve_110=1 lorand=0.333 hirand=0.667 sample=..\Wav\CLudwigKick-Dyn08.wav
<region> lovel=091 hivel=113 amp_velcurve_113=1 lorand=0.667 hirand=1.000 sample=..\Wav\CLudwigKick-Dyn09.wav
<region> lovel=114 hivel=127 amp_velcurve_119=1 lorand=0.000 hirand=0.333 sample=..\Wav\CLudwigKick-Dyn10.wav
<region> lovel=114 hivel=127 amp_velcurve_123=1 lorand=0.333 hirand=0.667 sample=..\Wav\CLudwigKick-Dyn11.wav
<region> lovel=114 hivel=127 amp_velcurve_127=1 lorand=0.667 hirand=1.000 sample=..\Wav\CLudwigKick-Dyn12.wav

// 030:  Rodgers_RimClck01.wav (-51.10)
// 046:  Rodgers_RimClck02.wav (-43.90)
// 069:  Rodgers_RimClck03.wav (-36.90)
// 078:  Rodgers_RimClck04.wav (-34.80)
// 083:  Rodgers_RimClck05.wav (-33.60)
// 097:  Rodgers_RimClck06.wav (-31.00)
// 119:  Rodgers_RimClck08.wav (-27.40)
// 127:  Rodgers_RimClck07.wav (-26.30)
<group> volume=-6 loop_mode=one_shot key=13
<region> lovel=001 hivel=030 amp_velcurve_030=1 sample=..\Wav\Rodgers_RimClck01.wav
<region> lovel=031 hivel=046 amp_velcurve_046=1 sample=..\Wav\Rodgers_RimClck02.wav
<region> lovel=047 hivel=069 amp_velcurve_069=1 sample=..\Wav\Rodgers_RimClck03.wav
<region> lovel=070 hivel=078 amp_velcurve_078=1 sample=..\Wav\Rodgers_RimClck04.wav
<region> lovel=079 hivel=083 amp_velcurve_083=1 sample=..\Wav\Rodgers_RimClck05.wav
<region> lovel=084 hivel=097 amp_velcurve_097=1 sample=..\Wav\Rodgers_RimClck06.wav
<region> lovel=098 hivel=119 amp_velcurve_119=1 sample=..\Wav\Rodgers_RimClck08.wav
<region> lovel=120 hivel=127 amp_velcurve_127=1 sample=..\Wav\Rodgers_RimClck07.wav
<group> volume=-6 loop_mode=one_shot key=37
<region> lovel=001 hivel=030 amp_velcurve_030=1 sample=..\Wav\Rodgers_RimClck01.wav
<region> lovel=031 hivel=046 amp_velcurve_046=1 sample=..\Wav\Rodgers_RimClck02.wav
<region> lovel=047 hivel=069 amp_velcurve_069=1 sample=..\Wav\Rodgers_RimClck03.wav
<region> lovel=070 hivel=078 amp_velcurve_078=1 sample=..\Wav\Rodgers_RimClck04.wav
<region> lovel=079 hivel=083 amp_velcurve_083=1 sample=..\Wav\Rodgers_RimClck05.wav
<region> lovel=084 hivel=097 amp_velcurve_097=1 sample=..\Wav\Rodgers_RimClck06.wav
<region> lovel=098 hivel=119 amp_velcurve_119=1 sample=..\Wav\Rodgers_RimClck08.wav
<region> lovel=120 hivel=127 amp_velcurve_127=1 sample=..\Wav\Rodgers_RimClck07.wav

// 022:  Rodgers_DynLH02.wav (-44.90)
// 031:  Rodgers_DynLH03.wav (-39.10)
// 043:  Rodgers_DynLH04.wav (-33.60)
// 051:  Rodgers_DynLH05.wav (-30.40)
// 055:  Rodgers_DynLH06.wav (-29.00)
// 066:  Rodgers_DynLH07.wav (-26.00)
// 076:  Rodgers_DynLH09.wav (-23.60)
// 078:  Rodgers_DynLH08.wav (-23.10)
// 086:  Rodgers_DynLH10.wav (-21.40)
// 103:  Rodgers_DynLH11.wav (-18.20)
// 113:  Rodgers_DynLH12.wav (-16.60)
// 122:  Rodgers_DynLH13.wav (-15.30)
// 125:  Rodgers_DynLH14.wav (-14.90)
// 126:  Rodgers_DynLH16.wav (-14.70)
// 127:  Rodgers_DynLH15.wav (-14.60)
<group> volume=-6 loop_mode=one_shot key=14
<region> lovel=001 hivel=022 amp_velcurve_022=1 sample=..\Wav\Rodgers_DynLH02.wav
<region> lovel=023 hivel=031 amp_velcurve_031=1 sample=..\Wav\Rodgers_DynLH03.wav
<region> lovel=032 hivel=043 amp_velcurve_043=1 sample=..\Wav\Rodgers_DynLH04.wav
<region> lovel=044 hivel=051 amp_velcurve_051=1 sample=..\Wav\Rodgers_DynLH05.wav
<region> lovel=052 hivel=055 amp_velcurve_055=1 sample=..\Wav\Rodgers_DynLH06.wav
<region> lovel=056 hivel=066 amp_velcurve_066=1 sample=..\Wav\Rodgers_DynLH07.wav
<region> lovel=067 hivel=076 amp_velcurve_076=1 sample=..\Wav\Rodgers_DynLH09.wav
<region> lovel=077 hivel=078 amp_velcurve_078=1 sample=..\Wav\Rodgers_DynLH08.wav
<region> lovel=079 hivel=086 amp_velcurve_086=1 sample=..\Wav\Rodgers_DynLH10.wav
<region> lovel=087 hivel=103 amp_velcurve_103=1 sample=..\Wav\Rodgers_DynLH11.wav
<region> lovel=104 hivel=113 amp_velcurve_113=1 sample=..\Wav\Rodgers_DynLH12.wav
<region> lovel=114 hivel=127 amp_velcurve_122=1 lorand=0.000 hirand=0.250 sample=..\Wav\Rodgers_DynLH13.wav
<region> lovel=114 hivel=127 amp_velcurve_125=1 lorand=0.250 hirand=0.500 sample=..\Wav\Rodgers_DynLH14.wav
<region> lovel=114 hivel=127 amp_velcurve_126=1 lorand=0.500 hirand=0.750 sample=..\Wav\Rodgers_DynLH16.wav
<region> lovel=114 hivel=127 amp_velcurve_127=1 lorand=0.750 hirand=1.000 sample=..\Wav\Rodgers_DynLH15.wav

// 127:  Rodgers_DynLH01.wav (-35.10)
<group> volume=-6 loop_mode=one_shot key=16
<region> lovel=001 hivel=127 sample=..\Wav\Rodgers_DynLH01.wav

// 011:  Rodgers_DynRH02.wav (-57.70)
// 025:  Rodgers_DynRH03.wav (-43.10)
// 038:  Rodgers_DynRH04.wav (-35.70)
// 048:  Rodgers_DynRH05.wav (-31.90)
// 055:  Rodgers_DynRH06.wav (-29.40)
// 063:  Rodgers_DynRH07.wav (-27.00)
// 076:  Rodgers_DynRH08.wav (-23.90)
// 078:  Rodgers_DynRH09.wav (-23.30)
// 097:  Rodgers_DynRH10.wav (-19.60)
// 104:  Rodgers_DynRH11.wav (-18.30)
// 111:  Rodgers_DynRH12.wav (-17.30)
// 124:  Rodgers_DynRH13.wav (-15.30)
// 125:  Rodgers_DynRH15.wav (-15.20)
// 125:  Rodgers_DynRH14.wav (-15.20)
// 127:  Rodgers_DynRH16.wav (-14.90)
<group> volume=-6 loop_mode=one_shot key=38
<region> lovel=001 hivel=011 amp_velcurve_011=1 sample=..\Wav\Rodgers_DynRH02.wav
<region> lovel=012 hivel=025 amp_velcurve_025=1 sample=..\Wav\Rodgers_DynRH03.wav
<region> lovel=026 hivel=038 amp_velcurve_038=1 sample=..\Wav\Rodgers_DynRH04.wav
<region> lovel=039 hivel=048 amp_velcurve_048=1 sample=..\Wav\Rodgers_DynRH05.wav
<region> lovel=049 hivel=055 amp_velcurve_055=1 sample=..\Wav\Rodgers_DynRH06.wav
<region> lovel=056 hivel=063 amp_velcurve_063=1 sample=..\Wav\Rodgers_DynRH07.wav
<region> lovel=064 hivel=076 amp_velcurve_076=1 sample=..\Wav\Rodgers_DynRH08.wav
<region> lovel=077 hivel=078 amp_velcurve_078=1 sample=..\Wav\Rodgers_DynRH09.wav
<region> lovel=079 hivel=097 amp_velcurve_097=1 sample=..\Wav\Rodgers_DynRH10.wav
<region> lovel=098 hivel=104 amp_velcurve_104=1 sample=..\Wav\Rodgers_DynRH11.wav
<region> lovel=105 hivel=111 amp_velcurve_111=1 sample=..\Wav\Rodgers_DynRH12.wav
<region> lovel=112 hivel=127 amp_velcurve_124=1 lorand=0.000 hirand=0.250 sample=..\Wav\Rodgers_DynRH13.wav
<region> lovel=112 hivel=127 amp_velcurve_125=1 lorand=0.250 hirand=0.500 sample=..\Wav\Rodgers_DynRH15.wav
<region> lovel=112 hivel=127 amp_velcurve_125=1 lorand=0.500 hirand=0.750 sample=..\Wav\Rodgers_DynRH14.wav
<region> lovel=112 hivel=127 amp_velcurve_127=1 lorand=0.750 hirand=1.000 sample=..\Wav\Rodgers_DynRH16.wav

// 127:  Rodgers_DynRH01.wav (-37.20)
<group> volume=-6 loop_mode=one_shot key=40
<region> lovel=001 hivel=127 sample=..\Wav\Rodgers_DynRH01.wav

// 100: Rodgers_HrdLH05.wav (-18.30)
// 114: Rodgers_HrdLH06.wav (-16.00)
// 116: Rodgers_HrdLH07.wav (-15.70)
// 121: Rodgers_HrdLH03.wav (-14.90)
// 123: Rodgers_HrdLH02.wav (-14.70)
// 124: Rodgers_HrdLH01.wav (-14.50)
// 125: Rodgers_HrdLH04.wav (-14.40)
// 127: Rodgers_HrdLH08.wav (-14.10)
<group> volume=-6 loop_mode=one_shot key=15
<region> lovel=001 hivel=116 amp_velcurve_100=1 lorand=0.000 hirand=0.333 sample=..\Wav\Rodgers_HrdLH05.wav
<region> lovel=001 hivel=116 amp_velcurve_114=1 lorand=0.333 hirand=0.667 sample=..\Wav\Rodgers_HrdLH06.wav
<region> lovel=001 hivel=116 amp_velcurve_116=1 lorand=0.667 hirand=1.000 sample=..\Wav\Rodgers_HrdLH07.wav
<region> lovel=117 hivel=127 amp_velcurve_121=1 lorand=0.000 hirand=0.200 sample=..\Wav\Rodgers_HrdLH03.wav
<region> lovel=117 hivel=127 amp_velcurve_123=1 lorand=0.200 hirand=0.400 sample=..\Wav\Rodgers_HrdLH02.wav
<region> lovel=117 hivel=127 amp_velcurve_124=1 lorand=0.400 hirand=0.600 sample=..\Wav\Rodgers_HrdLH01.wav
<region> lovel=117 hivel=127 amp_velcurve_125=1 lorand=0.600 hirand=0.800 sample=..\Wav\Rodgers_HrdLH04.wav
<region> lovel=117 hivel=127 amp_velcurve_127=1 lorand=0.800 hirand=1.000 sample=..\Wav\Rodgers_HrdLH08.wav

// 095: Rodgers_HrdRH07.wav (-19.10)
// 113: Rodgers_HrdRH04.wav (-16.00)
// 118: Rodgers_HrdRH05.wav (-15.30)
// 120: Rodgers_HrdRH06.wav (-15.00)
// 124: Rodgers_HrdRH01.wav (-14.40)
// 126: Rodgers_HrdRH02.wav (-14.20)
// 126: Rodgers_HrdRH03.wav (-14.10)
// 127: Rodgers_HrdRH08.wav (-14.00)
<group> volume=-6 loop_mode=one_shot key=39
<region> lovel=001 hivel=113 amp_velcurve_095=1 lorand=0.000 hirand=0.500 sample=..\Wav\Rodgers_HrdRH07.wav
<region> lovel=001 hivel=113 amp_velcurve_113=1 lorand=0.500 hirand=1.000 sample=..\Wav\Rodgers_HrdRH04.wav
<region> lovel=114 hivel=124 amp_velcurve_118=1 lorand=0.000 hirand=0.333 sample=..\Wav\Rodgers_HrdRH05.wav
<region> lovel=114 hivel=124 amp_velcurve_120=1 lorand=0.333 hirand=0.667 sample=..\Wav\Rodgers_HrdRH06.wav
<region> lovel=114 hivel=124 amp_velcurve_124=1 lorand=0.667 hirand=1.000 sample=..\Wav\Rodgers_HrdRH01.wav
<region> lovel=125 hivel=127 amp_velcurve_126=1 lorand=0.000 hirand=0.333 sample=..\Wav\Rodgers_HrdRH02.wav
<region> lovel=125 hivel=127 amp_velcurve_126=1 lorand=0.333 hirand=0.667 sample=..\Wav\Rodgers_HrdRH03.wav
<region> lovel=125 hivel=127 amp_velcurve_127=1 lorand=0.667 hirand=1.000 sample=..\Wav\Rodgers_HrdRH08.wav

// 016:  ZildMstrsnd-DynClsdLH01.wav (-61.20)
// 022:  ZildMstrsnd-DynClsdLH02.wav (-55.50)
// 027:  ZildMstrsnd-DynClsdLH03.wav (-51.90)
// 028:  ZildMstrsnd-DynClsdLH04.wav (-50.90)
// 035:  ZildMstrsnd-DynClsdLH05.wav (-47.30)
// 042:  ZildMstrsnd-DynClsdLH06.wav (-43.90)
// 049:  ZildMstrsnd-DynClsdLH08.wav (-41.40)
// 049:  ZildMstrsnd-DynClsdLH07.wav (-41.40)
// 059:  ZildMstrsnd-DynClsdLH09.wav (-38.20)
// 064:  ZildMstrsnd-DynClsdLH10.wav (-36.80)
// 072:  ZildMstrsnd-DynClsdLH11.wav (-34.60)
// 094:  ZildMstrsnd-DynClsdLH12.wav (-30.00)
// 095:  ZildMstrsnd-DynClsdLH13.wav (-29.80)
// 106:  ZildMstrsnd-DynClsdLH14.wav (-27.90)
// 113:  ZildMstrsnd-DynClsdLH15.wav (-26.90)
// 127:  ZildMstrsnd-DynClsdLH16.wav (-24.80)
<group> volume=-6 loop_mode=one_shot key=17 group=1 locc4=000 hicc4=008
<region> lovel=001 hivel=028 amp_velcurve_016=1 lorand=0.000 hirand=0.250 sample=..\Wav\ZildMstrsnd-DynClsdLH01.wav
<region> lovel=001 hivel=028 amp_velcurve_022=1 lorand=0.250 hirand=0.500 sample=..\Wav\ZildMstrsnd-DynClsdLH02.wav
<region> lovel=001 hivel=028 amp_velcurve_027=1 lorand=0.500 hirand=0.750 sample=..\Wav\ZildMstrsnd-DynClsdLH03.wav
<region> lovel=001 hivel=028 amp_velcurve_028=1 lorand=0.750 hirand=1.000 sample=..\Wav\ZildMstrsnd-DynClsdLH04.wav
<region> lovel=029 hivel=029 amp_velcurve_035=1 lorand=0.000 hirand=0.250 sample=..\Wav\ZildMstrsnd-DynClsdLH05.wav
<region> lovel=029 hivel=029 amp_velcurve_042=1 lorand=0.250 hirand=0.500 sample=..\Wav\ZildMstrsnd-DynClsdLH06.wav
<region> lovel=029 hivel=029 amp_velcurve_049=1 lorand=0.500 hirand=0.750 sample=..\Wav\ZildMstrsnd-DynClsdLH08.wav
<region> lovel=029 hivel=050 amp_velcurve_049=1 lorand=0.750 hirand=1.000 sample=..\Wav\ZildMstrsnd-DynClsdLH07.wav
<region> lovel=051 hivel=072 amp_velcurve_059=1 lorand=0.000 hirand=0.333 sample=..\Wav\ZildMstrsnd-DynClsdLH09.wav
<region> lovel=051 hivel=072 amp_velcurve_064=1 lorand=0.333 hirand=0.667 sample=..\Wav\ZildMstrsnd-DynClsdLH10.wav
<region> lovel=051 hivel=072 amp_velcurve_072=1 lorand=0.667 hirand=1.000 sample=..\Wav\ZildMstrsnd-DynClsdLH11.wav
<region> lovel=073 hivel=106 amp_velcurve_094=1 lorand=0.000 hirand=0.333 sample=..\Wav\ZildMstrsnd-DynClsdLH12.wav
<region> lovel=073 hivel=106 amp_velcurve_095=1 lorand=0.333 hirand=0.667 sample=..\Wav\ZildMstrsnd-DynClsdLH13.wav
<region> lovel=073 hivel=106 amp_velcurve_106=1 lorand=0.667 hirand=1.000 sample=..\Wav\ZildMstrsnd-DynClsdLH14.wav
<region> lovel=107 hivel=113 amp_velcurve_113=1 sample=..\Wav\ZildMstrsnd-DynClsdLH15.wav
<region> lovel=114 hivel=127 amp_velcurve_127=1 sample=..\Wav\ZildMstrsnd-DynClsdLH16.wav

// 024:  ZildMstrsnd-DynSmiOpn01.wav (-52.00)
// 026:  ZildMstrsnd-DynSmiOpn02.wav (-50.80)
// 031:  ZildMstrsnd-DynSmiOpn03.wav (-47.60)
// 035:  ZildMstrsnd-DynSmiOpn04.wav (-45.30)
// 040:  ZildMstrsnd-DynSmiOpn05.wav (-43.10)
// 044:  ZildMstrsnd-DynSmiOpn06.wav (-41.60)
// 053:  ZildMstrsnd-DynSmiOpn07.wav (-38.40)
// 055:  ZildMstrsnd-DynSmiOpn08.wav (-37.70)
// 059:  ZildMstrsnd-DynSmiOpn09.wav (-36.40)
// 070:  ZildMstrsnd-DynSmiOpn10.wav (-33.40)
// 074:  ZildMstrsnd-DynSmiOpn11.wav (-32.40)
// 085:  ZildMstrsnd-DynSmiOpn12.wav (-30.00)
// 087:  ZildMstrsnd-DynSmiOpn13.wav (-29.60)
// 101:  ZildMstrsnd-DynSmiOpn14.wav (-27.10)
// 110:  ZildMstrsnd-DynSmiOpn15.wav (-25.60)
// 127:  ZildMstrsnd-DynSmiOpn16.wav (-23.10)
<group> volume=-6 loop_mode=one_shot key=17 off_by=1 locc4=009 hicc4=096
<region> lovel=001 hivel=026 amp_velcurve_024=1 lorand=0.000 hirand=0.500 sample=..\Wav\ZildMstrsnd-DynSmiOpn01.wav
<region> lovel=001 hivel=026 amp_velcurve_026=1 lorand=0.500 hirand=1.000 sample=..\Wav\ZildMstrsnd-DynSmiOpn02.wav
<region> lovel=027 hivel=031 amp_velcurve_031=1 sample=..\Wav\ZildMstrsnd-DynSmiOpn03.wav
<region> lovel=032 hivel=035 amp_velcurve_035=1 sample=..\Wav\ZildMstrsnd-DynSmiOpn04.wav
<region> lovel=036 hivel=040 amp_velcurve_040=1 sample=..\Wav\ZildMstrsnd-DynSmiOpn05.wav
<region> lovel=041 hivel=044 amp_velcurve_044=1 sample=..\Wav\ZildMstrsnd-DynSmiOpn06.wav
<region> lovel=045 hivel=055 amp_velcurve_053=1 lorand=0.000 hirand=0.500 sample=..\Wav\ZildMstrsnd-DynSmiOpn07.wav
<region> lovel=045 hivel=055 amp_velcurve_055=1 lorand=0.500 hirand=1.000 sample=..\Wav\ZildMstrsnd-DynSmiOpn08.wav
<region> lovel=056 hivel=059 amp_velcurve_059=1 sample=..\Wav\ZildMstrsnd-DynSmiOpn09.wav
<region> lovel=060 hivel=070 amp_velcurve_070=1 sample=..\Wav\ZildMstrsnd-DynSmiOpn10.wav
<region> lovel=071 hivel=074 amp_velcurve_074=1 sample=..\Wav\ZildMstrsnd-DynSmiOpn11.wav
<region> lovel=075 hivel=087 amp_velcurve_085=1 lorand=0.000 hirand=0.500 sample=..\Wav\ZildMstrsnd-DynSmiOpn12.wav
<region> lovel=075 hivel=087 amp_velcurve_087=1 lorand=0.500 hirand=1.000 sample=..\Wav\ZildMstrsnd-DynSmiOpn13.wav
<region> lovel=088 hivel=101 amp_velcurve_101=1 sample=..\Wav\ZildMstrsnd-DynSmiOpn14.wav
<region> lovel=102 hivel=110 amp_velcurve_110=1 sample=..\Wav\ZildMstrsnd-DynSmiOpn15.wav
<region> lovel=111 hivel=127 amp_velcurve_127=1 sample=..\Wav\ZildMstrsnd-DynSmiOpn16.wav

// 012:  ZildMstrsnd-DynOpn01.wav (-63.40)
// 024:  ZildMstrsnd-DynOpn02.wav (-52.00)
// 030:  ZildMstrsnd-DynOpn03.wav (-48.00)
// 043:  ZildMstrsnd-DynOpn04.wav (-41.80)
// 051:  ZildMstrsnd-DynOpn05.wav (-38.90)
// 052:  ZildMstrsnd-DynOpn06.wav (-38.50)
// 066:  ZildMstrsnd-DynOpn07.wav (-34.40)
// 072:  ZildMstrsnd-DynOpn08.wav (-33.00)
// 085:  ZildMstrsnd-DynOpn09.wav (-30.10)
// 089:  ZildMstrsnd-DynOpn10.wav (-29.30)
// 090:  ZildMstrsnd-DynOpn11.wav (-29.00)
// 095:  ZildMstrsnd-DynOpn12.wav (-28.20)
// 102:  ZildMstrsnd-DynOpn13.wav (-26.90)
// 116:  ZildMstrsnd-DynOpn14.wav (-24.70)
// 119:  ZildMstrsnd-DynOpn15.wav (-24.20)
// 127:  ZildMstrsnd-DynOpn16.wav (-23.10)
<group> volume=-6 loop_mode=one_shot key=17 off_by=1 locc4=097 hicc4=127
<region> lovel=000 hivel=012 amp_velcurve_012=1 sample=..\Wav\ZildMstrsnd-DynOpn01.wav
<region> lovel=013 hivel=024 amp_velcurve_024=1 sample=..\Wav\ZildMstrsnd-DynOpn02.wav
<region> lovel=025 hivel=030 amp_velcurve_030=1 sample=..\Wav\ZildMstrsnd-DynOpn03.wav
<region> lovel=031 hivel=043 amp_velcurve_043=1 sample=..\Wav\ZildMstrsnd-DynOpn04.wav
<region> lovel=044 hivel=052 amp_velcurve_051=1 lorand=0.000 hirand=0.500 sample=..\Wav\ZildMstrsnd-DynOpn05.wav
<region> lovel=044 hivel=052 amp_velcurve_052=1 lorand=0.500 hirand=1.000 sample=..\Wav\ZildMstrsnd-DynOpn06.wav
<region> lovel=053 hivel=066 amp_velcurve_066=1 sample=..\Wav\ZildMstrsnd-DynOpn07.wav
<region> lovel=067 hivel=072 amp_velcurve_072=1 sample=..\Wav\ZildMstrsnd-DynOpn08.wav
<region> lovel=073 hivel=085 amp_velcurve_085=1 sample=..\Wav\ZildMstrsnd-DynOpn09.wav
<region> lovel=086 hivel=090 amp_velcurve_089=1 lorand=0.000 hirand=0.500 sample=..\Wav\ZildMstrsnd-DynOpn10.wav
<region> lovel=086 hivel=090 amp_velcurve_090=1 lorand=0.500 hirand=1.000 sample=..\Wav\ZildMstrsnd-DynOpn11.wav
<region> lovel=091 hivel=095 amp_velcurve_095=1 sample=..\Wav\ZildMstrsnd-DynOpn12.wav
<region> lovel=096 hivel=102 amp_velcurve_102=1 sample=..\Wav\ZildMstrsnd-DynOpn13.wav
<region> lovel=103 hivel=116 amp_velcurve_116=1 sample=..\Wav\ZildMstrsnd-DynOpn14.wav
<region> lovel=117 hivel=119 amp_velcurve_119=1 sample=..\Wav\ZildMstrsnd-DynOpn15.wav
<region> lovel=120 hivel=127 amp_velcurve_127=1 sample=..\Wav\ZildMstrsnd-DynOpn16.wav

<group> volume=-6 loop_mode=one_shot key=18 group=1 locc4=000 hicc4=008
<region> lovel=001 hivel=028 amp_velcurve_016=1 lorand=0.000 hirand=0.250 sample=..\Wav\ZildMstrsnd-DynClsdLH01.wav
<region> lovel=001 hivel=028 amp_velcurve_022=1 lorand=0.250 hirand=0.500 sample=..\Wav\ZildMstrsnd-DynClsdLH02.wav
<region> lovel=001 hivel=028 amp_velcurve_027=1 lorand=0.500 hirand=0.750 sample=..\Wav\ZildMstrsnd-DynClsdLH03.wav
<region> lovel=001 hivel=028 amp_velcurve_028=1 lorand=0.750 hirand=1.000 sample=..\Wav\ZildMstrsnd-DynClsdLH04.wav
<region> lovel=029 hivel=029 amp_velcurve_035=1 lorand=0.000 hirand=0.250 sample=..\Wav\ZildMstrsnd-DynClsdLH05.wav
<region> lovel=029 hivel=029 amp_velcurve_042=1 lorand=0.250 hirand=0.500 sample=..\Wav\ZildMstrsnd-DynClsdLH06.wav
<region> lovel=029 hivel=029 amp_velcurve_049=1 lorand=0.500 hirand=0.750 sample=..\Wav\ZildMstrsnd-DynClsdLH08.wav
<region> lovel=029 hivel=050 amp_velcurve_049=1 lorand=0.750 hirand=1.000 sample=..\Wav\ZildMstrsnd-DynClsdLH07.wav
<region> lovel=051 hivel=072 amp_velcurve_059=1 lorand=0.000 hirand=0.333 sample=..\Wav\ZildMstrsnd-DynClsdLH09.wav
<region> lovel=051 hivel=072 amp_velcurve_064=1 lorand=0.333 hirand=0.667 sample=..\Wav\ZildMstrsnd-DynClsdLH10.wav
<region> lovel=051 hivel=072 amp_velcurve_072=1 lorand=0.667 hirand=1.000 sample=..\Wav\ZildMstrsnd-DynClsdLH11.wav
<region> lovel=073 hivel=106 amp_velcurve_094=1 lorand=0.000 hirand=0.333 sample=..\Wav\ZildMstrsnd-DynClsdLH12.wav
<region> lovel=073 hivel=106 amp_velcurve_095=1 lorand=0.333 hirand=0.667 sample=..\Wav\ZildMstrsnd-DynClsdLH13.wav
<region> lovel=073 hivel=106 amp_velcurve_106=1 lorand=0.667 hirand=1.000 sample=..\Wav\ZildMstrsnd-DynClsdLH14.wav
<region> lovel=107 hivel=113 amp_velcurve_113=1 sample=..\Wav\ZildMstrsnd-DynClsdLH15.wav
<region> lovel=114 hivel=127 amp_velcurve_127=1 sample=..\Wav\ZildMstrsnd-DynClsdLH16.wav

<group> volume=-6 loop_mode=one_shot key=18 off_by=1 locc4=009 hicc4=096
<region> lovel=001 hivel=026 amp_velcurve_024=1 lorand=0.000 hirand=0.500 sample=..\Wav\ZildMstrsnd-DynSmiOpn01.wav
<region> lovel=001 hivel=026 amp_velcurve_026=1 lorand=0.500 hirand=1.000 sample=..\Wav\ZildMstrsnd-DynSmiOpn02.wav
<region> lovel=027 hivel=031 amp_velcurve_031=1 sample=..\Wav\ZildMstrsnd-DynSmiOpn03.wav
<region> lovel=032 hivel=035 amp_velcurve_035=1 sample=..\Wav\ZildMstrsnd-DynSmiOpn04.wav
<region> lovel=036 hivel=040 amp_velcurve_040=1 sample=..\Wav\ZildMstrsnd-DynSmiOpn05.wav
<region> lovel=041 hivel=044 amp_velcurve_044=1 sample=..\Wav\ZildMstrsnd-DynSmiOpn06.wav
<region> lovel=045 hivel=055 amp_velcurve_053=1 lorand=0.000 hirand=0.500 sample=..\Wav\ZildMstrsnd-DynSmiOpn07.wav
<region> lovel=045 hivel=055 amp_velcurve_055=1 lorand=0.500 hirand=1.000 sample=..\Wav\ZildMstrsnd-DynSmiOpn08.wav
<region> lovel=056 hivel=059 amp_velcurve_059=1 sample=..\Wav\ZildMstrsnd-DynSmiOpn09.wav
<region> lovel=060 hivel=070 amp_velcurve_070=1 sample=..\Wav\ZildMstrsnd-DynSmiOpn10.wav
<region> lovel=071 hivel=074 amp_velcurve_074=1 sample=..\Wav\ZildMstrsnd-DynSmiOpn11.wav
<region> lovel=075 hivel=087 amp_velcurve_085=1 lorand=0.000 hirand=0.500 sample=..\Wav\ZildMstrsnd-DynSmiOpn12.wav
<region> lovel=075 hivel=087 amp_velcurve_087=1 lorand=0.500 hirand=1.000 sample=..\Wav\ZildMstrsnd-DynSmiOpn13.wav
<region> lovel=088 hivel=101 amp_velcurve_101=1 sample=..\Wav\ZildMstrsnd-DynSmiOpn14.wav
<region> lovel=102 hivel=110 amp_velcurve_110=1 sample=..\Wav\ZildMstrsnd-DynSmiOpn15.wav
<region> lovel=111 hivel=127 amp_velcurve_127=1 sample=..\Wav\ZildMstrsnd-DynSmiOpn16.wav

<group> volume=-6 loop_mode=one_shot key=18 off_by=1 locc4=097 hicc4=127
<region> lovel=000 hivel=012 amp_velcurve_012=1 sample=..\Wav\ZildMstrsnd-DynOpn01.wav
<region> lovel=013 hivel=024 amp_velcurve_024=1 sample=..\Wav\ZildMstrsnd-DynOpn02.wav
<region> lovel=025 hivel=030 amp_velcurve_030=1 sample=..\Wav\ZildMstrsnd-DynOpn03.wav
<region> lovel=031 hivel=043 amp_velcurve_043=1 sample=..\Wav\ZildMstrsnd-DynOpn04.wav
<region> lovel=044 hivel=052 amp_velcurve_051=1 lorand=0.000 hirand=0.500 sample=..\Wav\ZildMstrsnd-DynOpn05.wav
<region> lovel=044 hivel=052 amp_velcurve_052=1 lorand=0.500 hirand=1.000 sample=..\Wav\ZildMstrsnd-DynOpn06.wav
<region> lovel=053 hivel=066 amp_velcurve_066=1 sample=..\Wav\ZildMstrsnd-DynOpn07.wav
<region> lovel=067 hivel=072 amp_velcurve_072=1 sample=..\Wav\ZildMstrsnd-DynOpn08.wav
<region> lovel=073 hivel=085 amp_velcurve_085=1 sample=..\Wav\ZildMstrsnd-DynOpn09.wav
<region> lovel=086 hivel=090 amp_velcurve_089=1 lorand=0.000 hirand=0.500 sample=..\Wav\ZildMstrsnd-DynOpn10.wav
<region> lovel=086 hivel=090 amp_velcurve_090=1 lorand=0.500 hirand=1.000 sample=..\Wav\ZildMstrsnd-DynOpn11.wav
<region> lovel=091 hivel=095 amp_velcurve_095=1 sample=..\Wav\ZildMstrsnd-DynOpn12.wav
<region> lovel=096 hivel=102 amp_velcurve_102=1 sample=..\Wav\ZildMstrsnd-DynOpn13.wav
<region> lovel=103 hivel=116 amp_velcurve_116=1 sample=..\Wav\ZildMstrsnd-DynOpn14.wav
<region> lovel=117 hivel=119 amp_velcurve_119=1 sample=..\Wav\ZildMstrsnd-DynOpn15.wav
<region> lovel=120 hivel=127 amp_velcurve_127=1 sample=..\Wav\ZildMstrsnd-DynOpn16.wav

// 017:  ZildMstrsnd-DynClsdRH01.wav (-59.10)
// 024:  ZildMstrsnd-DynClsdRH02.wav (-53.20)
// 032:  ZildMstrsnd-DynClsdRH03.wav (-48.50)
// 038:  ZildMstrsnd-DynClsdRH04.wav (-45.40)
// 041:  ZildMstrsnd-DynClsdRH05.wav (-44.10)
// 047:  ZildMstrsnd-DynClsdRH07.wav (-41.70)
// 047:  ZildMstrsnd-DynClsdRH06.wav (-41.50)
// 054:  ZildMstrsnd-DynClsdRH08.wav (-39.20)
// 068:  ZildMstrsnd-DynClsdRH09.wav (-35.20)
// 082:  ZildMstrsnd-DynClsdRH10.wav (-31.80)
// 084:  ZildMstrsnd-DynClsdRH11.wav (-31.40)
// 087:  ZildMstrsnd-DynClsdRH12.wav (-30.80)
// 099:  ZildMstrsnd-DynClsdRH13.wav (-28.60)
// 112:  ZildMstrsnd-DynClsdRH14.wav (-26.50)
// 114:  ZildMstrsnd-DynClsdRH15.wav (-26.20)
// 127:  ZildMstrsnd-DynClsdRH16.wav (-24.30)
<group> volume=-6 loop_mode=one_shot key=41 group=1
<region> lovel=000 hivel=017 amp_velcurve_017=1 sample=..\Wav\ZildMstrsnd-DynClsdRH01.wav
<region> lovel=018 hivel=024 amp_velcurve_024=1 sample=..\Wav\ZildMstrsnd-DynClsdRH02.wav
<region> lovel=025 hivel=032 amp_velcurve_032=1 sample=..\Wav\ZildMstrsnd-DynClsdRH03.wav
<region> lovel=033 hivel=038 amp_velcurve_038=1 sample=..\Wav\ZildMstrsnd-DynClsdRH04.wav
<region> lovel=039 hivel=041 amp_velcurve_041=1 sample=..\Wav\ZildMstrsnd-DynClsdRH05.wav
<region> lovel=042 hivel=047 amp_velcurve_047=1 lorand=0.000 hirand=0.500 sample=..\Wav\ZildMstrsnd-DynClsdRH07.wav
<region> lovel=048 hivel=048 amp_velcurve_047=1 lorand=0.500 hirand=1.000 sample=..\Wav\ZildMstrsnd-DynClsdRH06.wav
<region> lovel=049 hivel=054 amp_velcurve_054=1 sample=..\Wav\ZildMstrsnd-DynClsdRH08.wav
<region> lovel=055 hivel=068 amp_velcurve_068=1 sample=..\Wav\ZildMstrsnd-DynClsdRH09.wav
<region> lovel=069 hivel=082 amp_velcurve_082=1 sample=..\Wav\ZildMstrsnd-DynClsdRH10.wav
<region> lovel=083 hivel=084 amp_velcurve_084=1 sample=..\Wav\ZildMstrsnd-DynClsdRH11.wav
<region> lovel=085 hivel=087 amp_velcurve_087=1 sample=..\Wav\ZildMstrsnd-DynClsdRH12.wav
<region> lovel=088 hivel=099 amp_velcurve_099=1 sample=..\Wav\ZildMstrsnd-DynClsdRH13.wav
<region> lovel=100 hivel=112 amp_velcurve_112=1 sample=..\Wav\ZildMstrsnd-DynClsdRH14.wav
<region> lovel=113 hivel=114 amp_velcurve_114=1 sample=..\Wav\ZildMstrsnd-DynClsdRH15.wav
<region> lovel=115 hivel=127 amp_velcurve_127=1 sample=..\Wav\ZildMstrsnd-DynClsdRH16.wav

<group> volume=-6 loop_mode=one_shot key=41 off_by=1 locc4=009 hicc4=096
<region> lovel=001 hivel=026 amp_velcurve_024=1 lorand=0.000 hirand=0.500 sample=..\Wav\ZildMstrsnd-DynSmiOpn01.wav
<region> lovel=001 hivel=026 amp_velcurve_026=1 lorand=0.500 hirand=1.000 sample=..\Wav\ZildMstrsnd-DynSmiOpn02.wav
<region> lovel=027 hivel=031 amp_velcurve_031=1 sample=..\Wav\ZildMstrsnd-DynSmiOpn03.wav
<region> lovel=032 hivel=035 amp_velcurve_035=1 sample=..\Wav\ZildMstrsnd-DynSmiOpn04.wav
<region> lovel=036 hivel=040 amp_velcurve_040=1 sample=..\Wav\ZildMstrsnd-DynSmiOpn05.wav
<region> lovel=041 hivel=044 amp_velcurve_044=1 sample=..\Wav\ZildMstrsnd-DynSmiOpn06.wav
<region> lovel=045 hivel=055 amp_velcurve_053=1 lorand=0.000 hirand=0.500 sample=..\Wav\ZildMstrsnd-DynSmiOpn07.wav
<region> lovel=045 hivel=055 amp_velcurve_055=1 lorand=0.500 hirand=1.000 sample=..\Wav\ZildMstrsnd-DynSmiOpn08.wav
<region> lovel=056 hivel=059 amp_velcurve_059=1 sample=..\Wav\ZildMstrsnd-DynSmiOpn09.wav
<region> lovel=060 hivel=070 amp_velcurve_070=1 sample=..\Wav\ZildMstrsnd-DynSmiOpn10.wav
<region> lovel=071 hivel=074 amp_velcurve_074=1 sample=..\Wav\ZildMstrsnd-DynSmiOpn11.wav
<region> lovel=075 hivel=087 amp_velcurve_085=1 lorand=0.000 hirand=0.500 sample=..\Wav\ZildMstrsnd-DynSmiOpn12.wav
<region> lovel=075 hivel=087 amp_velcurve_087=1 lorand=0.500 hirand=1.000 sample=..\Wav\ZildMstrsnd-DynSmiOpn13.wav
<region> lovel=088 hivel=101 amp_velcurve_101=1 sample=..\Wav\ZildMstrsnd-DynSmiOpn14.wav
<region> lovel=102 hivel=110 amp_velcurve_110=1 sample=..\Wav\ZildMstrsnd-DynSmiOpn15.wav
<region> lovel=111 hivel=127 amp_velcurve_127=1 sample=..\Wav\ZildMstrsnd-DynSmiOpn16.wav

<group> volume=-6 loop_mode=one_shot key=41 off_by=1 locc4=097 hicc4=127
<region> lovel=000 hivel=012 amp_velcurve_012=1 sample=..\Wav\ZildMstrsnd-DynOpn01.wav
<region> lovel=013 hivel=024 amp_velcurve_024=1 sample=..\Wav\ZildMstrsnd-DynOpn02.wav
<region> lovel=025 hivel=030 amp_velcurve_030=1 sample=..\Wav\ZildMstrsnd-DynOpn03.wav
<region> lovel=031 hivel=043 amp_velcurve_043=1 sample=..\Wav\ZildMstrsnd-DynOpn04.wav
<region> lovel=044 hivel=052 amp_velcurve_051=1 lorand=0.000 hirand=0.500 sample=..\Wav\ZildMstrsnd-DynOpn05.wav
<region> lovel=044 hivel=052 amp_velcurve_052=1 lorand=0.500 hirand=1.000 sample=..\Wav\ZildMstrsnd-DynOpn06.wav
<region> lovel=053 hivel=066 amp_velcurve_066=1 sample=..\Wav\ZildMstrsnd-DynOpn07.wav
<region> lovel=067 hivel=072 amp_velcurve_072=1 sample=..\Wav\ZildMstrsnd-DynOpn08.wav
<region> lovel=073 hivel=085 amp_velcurve_085=1 sample=..\Wav\ZildMstrsnd-DynOpn09.wav
<region> lovel=086 hivel=090 amp_velcurve_089=1 lorand=0.000 hirand=0.500 sample=..\Wav\ZildMstrsnd-DynOpn10.wav
<region> lovel=086 hivel=090 amp_velcurve_090=1 lorand=0.500 hirand=1.000 sample=..\Wav\ZildMstrsnd-DynOpn11.wav
<region> lovel=091 hivel=095 amp_velcurve_095=1 sample=..\Wav\ZildMstrsnd-DynOpn12.wav
<region> lovel=096 hivel=102 amp_velcurve_102=1 sample=..\Wav\ZildMstrsnd-DynOpn13.wav
<region> lovel=103 hivel=116 amp_velcurve_116=1 sample=..\Wav\ZildMstrsnd-DynOpn14.wav
<region> lovel=117 hivel=119 amp_velcurve_119=1 sample=..\Wav\ZildMstrsnd-DynOpn15.wav
<region> lovel=120 hivel=127 amp_velcurve_127=1 sample=..\Wav\ZildMstrsnd-DynOpn16.wav

<group> volume=-6 loop_mode=one_shot key=42 group=1 locc4=000 hicc4=008
<region> lovel=000 hivel=017 amp_velcurve_017=1 sample=..\Wav\ZildMstrsnd-DynClsdRH01.wav
<region> lovel=018 hivel=024 amp_velcurve_024=1 sample=..\Wav\ZildMstrsnd-DynClsdRH02.wav
<region> lovel=025 hivel=032 amp_velcurve_032=1 sample=..\Wav\ZildMstrsnd-DynClsdRH03.wav
<region> lovel=033 hivel=038 amp_velcurve_038=1 sample=..\Wav\ZildMstrsnd-DynClsdRH04.wav
<region> lovel=039 hivel=041 amp_velcurve_041=1 sample=..\Wav\ZildMstrsnd-DynClsdRH05.wav
<region> lovel=042 hivel=047 amp_velcurve_047=1 sample=..\Wav\ZildMstrsnd-DynClsdRH07.wav
<region> lovel=048 hivel=048 amp_velcurve_047=1 sample=..\Wav\ZildMstrsnd-DynClsdRH06.wav
<region> lovel=049 hivel=054 amp_velcurve_054=1 sample=..\Wav\ZildMstrsnd-DynClsdRH08.wav
<region> lovel=055 hivel=068 amp_velcurve_068=1 sample=..\Wav\ZildMstrsnd-DynClsdRH09.wav
<region> lovel=069 hivel=082 amp_velcurve_082=1 sample=..\Wav\ZildMstrsnd-DynClsdRH10.wav
<region> lovel=083 hivel=084 amp_velcurve_084=1 sample=..\Wav\ZildMstrsnd-DynClsdRH11.wav
<region> lovel=085 hivel=087 amp_velcurve_087=1 sample=..\Wav\ZildMstrsnd-DynClsdRH12.wav
<region> lovel=088 hivel=099 amp_velcurve_099=1 sample=..\Wav\ZildMstrsnd-DynClsdRH13.wav
<region> lovel=100 hivel=112 amp_velcurve_112=1 sample=..\Wav\ZildMstrsnd-DynClsdRH14.wav
<region> lovel=113 hivel=114 amp_velcurve_114=1 sample=..\Wav\ZildMstrsnd-DynClsdRH15.wav
<region> lovel=115 hivel=127 amp_velcurve_127=1 sample=..\Wav\ZildMstrsnd-DynClsdRH16.wav

<group> volume=-6 loop_mode=one_shot key=42 off_by=1 locc4=009 hicc4=096
<region> lovel=001 hivel=026 amp_velcurve_024=1 lorand=0.000 hirand=0.500 sample=..\Wav\ZildMstrsnd-DynSmiOpn01.wav
<region> lovel=001 hivel=026 amp_velcurve_026=1 lorand=0.500 hirand=1.000 sample=..\Wav\ZildMstrsnd-DynSmiOpn02.wav
<region> lovel=027 hivel=031 amp_velcurve_031=1 sample=..\Wav\ZildMstrsnd-DynSmiOpn03.wav
<region> lovel=032 hivel=035 amp_velcurve_035=1 sample=..\Wav\ZildMstrsnd-DynSmiOpn04.wav
<region> lovel=036 hivel=040 amp_velcurve_040=1 sample=..\Wav\ZildMstrsnd-DynSmiOpn05.wav
<region> lovel=041 hivel=044 amp_velcurve_044=1 sample=..\Wav\ZildMstrsnd-DynSmiOpn06.wav
<region> lovel=045 hivel=055 amp_velcurve_053=1 lorand=0.000 hirand=0.500 sample=..\Wav\ZildMstrsnd-DynSmiOpn07.wav
<region> lovel=045 hivel=055 amp_velcurve_055=1 lorand=0.500 hirand=1.000 sample=..\Wav\ZildMstrsnd-DynSmiOpn08.wav
<region> lovel=056 hivel=059 amp_velcurve_059=1 sample=..\Wav\ZildMstrsnd-DynSmiOpn09.wav
<region> lovel=060 hivel=070 amp_velcurve_070=1 sample=..\Wav\ZildMstrsnd-DynSmiOpn10.wav
<region> lovel=071 hivel=074 amp_velcurve_074=1 sample=..\Wav\ZildMstrsnd-DynSmiOpn11.wav
<region> lovel=075 hivel=087 amp_velcurve_085=1 lorand=0.000 hirand=0.500 sample=..\Wav\ZildMstrsnd-DynSmiOpn12.wav
<region> lovel=075 hivel=087 amp_velcurve_087=1 lorand=0.500 hirand=1.000 sample=..\Wav\ZildMstrsnd-DynSmiOpn13.wav
<region> lovel=088 hivel=101 amp_velcurve_101=1 sample=..\Wav\ZildMstrsnd-DynSmiOpn14.wav
<region> lovel=102 hivel=110 amp_velcurve_110=1 sample=..\Wav\ZildMstrsnd-DynSmiOpn15.wav
<region> lovel=111 hivel=127 amp_velcurve_127=1 sample=..\Wav\ZildMstrsnd-DynSmiOpn16.wav

<group> volume=-6 loop_mode=one_shot key=42 off_by=1 locc4=097 hicc4=127
<region> lovel=000 hivel=012 amp_velcurve_012=1 sample=..\Wav\ZildMstrsnd-DynOpn01.wav
<region> lovel=013 hivel=024 amp_velcurve_024=1 sample=..\Wav\ZildMstrsnd-DynOpn02.wav
<region> lovel=025 hivel=030 amp_velcurve_030=1 sample=..\Wav\ZildMstrsnd-DynOpn03.wav
<region> lovel=031 hivel=043 amp_velcurve_043=1 sample=..\Wav\ZildMstrsnd-DynOpn04.wav
<region> lovel=044 hivel=052 amp_velcurve_051=1 lorand=0.000 hirand=0.500 sample=..\Wav\ZildMstrsnd-DynOpn05.wav
<region> lovel=044 hivel=052 amp_velcurve_052=1 lorand=0.500 hirand=1.000 sample=..\Wav\ZildMstrsnd-DynOpn06.wav
<region> lovel=053 hivel=066 amp_velcurve_066=1 sample=..\Wav\ZildMstrsnd-DynOpn07.wav
<region> lovel=067 hivel=072 amp_velcurve_072=1 sample=..\Wav\ZildMstrsnd-DynOpn08.wav
<region> lovel=073 hivel=085 amp_velcurve_085=1 sample=..\Wav\ZildMstrsnd-DynOpn09.wav
<region> lovel=086 hivel=090 amp_velcurve_089=1 lorand=0.000 hirand=0.500 sample=..\Wav\ZildMstrsnd-DynOpn10.wav
<region> lovel=086 hivel=090 amp_velcurve_090=1 lorand=0.500 hirand=1.000 sample=..\Wav\ZildMstrsnd-DynOpn11.wav
<region> lovel=091 hivel=095 amp_velcurve_095=1 sample=..\Wav\ZildMstrsnd-DynOpn12.wav
<region> lovel=096 hivel=102 amp_velcurve_102=1 sample=..\Wav\ZildMstrsnd-DynOpn13.wav
<region> lovel=103 hivel=116 amp_velcurve_116=1 sample=..\Wav\ZildMstrsnd-DynOpn14.wav
<region> lovel=117 hivel=119 amp_velcurve_119=1 sample=..\Wav\ZildMstrsnd-DynOpn15.wav
<region> lovel=120 hivel=127 amp_velcurve_127=1 sample=..\Wav\ZildMstrsnd-DynOpn16.wav

// 049:  ZildMstrsnd-DynPed01.wav (-44.60)
// 062:  ZildMstrsnd-DynPed02.wav (-40.70)
// 070:  ZildMstrsnd-DynPed03.wav (-38.50)
// 075:  ZildMstrsnd-DynPed04.wav (-37.30)
// 078:  ZildMstrsnd-DynPed05.wav (-36.70)
// 078:  ZildMstrsnd-DynPed06.wav (-36.60)
// 086:  ZildMstrsnd-DynPed07.wav (-35.00)
// 096:  ZildMstrsnd-DynPed08.wav (-33.00)
// 106:  ZildMstrsnd-DynPed09.wav (-31.30)
// 127:  ZildMstrsnd-DynPed10.wav (-28.20)
<group> volume=-6 loop_mode=one_shot key=44 group=1
<region> lovel=000 hivel=049 amp_velcurve_049=1 sample=..\Wav\ZildMstrsnd-DynPed01.wav
<region> lovel=050 hivel=062 amp_velcurve_062=1 sample=..\Wav\ZildMstrsnd-DynPed02.wav
<region> lovel=063 hivel=070 amp_velcurve_070=1 sample=..\Wav\ZildMstrsnd-DynPed03.wav
<region> lovel=071 hivel=079 amp_velcurve_075=1 lorand=0.000 hirand=0.333 sample=..\Wav\ZildMstrsnd-DynPed04.wav
<region> lovel=071 hivel=079 amp_velcurve_078=1 lorand=0.333 hirand=0.667 sample=..\Wav\ZildMstrsnd-DynPed05.wav
<region> lovel=071 hivel=079 amp_velcurve_078=1 lorand=0.667 hirand=1.000 sample=..\Wav\ZildMstrsnd-DynPed06.wav
<region> lovel=080 hivel=086 amp_velcurve_086=1 sample=..\Wav\ZildMstrsnd-DynPed07.wav
<region> lovel=087 hivel=096 amp_velcurve_096=1 sample=..\Wav\ZildMstrsnd-DynPed08.wav
<region> lovel=097 hivel=106 amp_velcurve_106=1 sample=..\Wav\ZildMstrsnd-DynPed09.wav
<region> lovel=107 hivel=127 amp_velcurve_127=1 sample=..\Wav\ZildMstrsnd-DynPed10.wav

<group> volume=-6 loop_mode=one_shot key=22 off_by=1
<region> lovel=000 hivel=012 amp_velcurve_012=1 sample=..\Wav\ZildMstrsnd-DynOpn01.wav
<region> lovel=013 hivel=024 amp_velcurve_024=1 sample=..\Wav\ZildMstrsnd-DynOpn02.wav
<region> lovel=025 hivel=030 amp_velcurve_030=1 sample=..\Wav\ZildMstrsnd-DynOpn03.wav
<region> lovel=031 hivel=043 amp_velcurve_043=1 sample=..\Wav\ZildMstrsnd-DynOpn04.wav
<region> lovel=044 hivel=052 amp_velcurve_051=1 lorand=0.000 hirand=0.500 sample=..\Wav\ZildMstrsnd-DynOpn05.wav
<region> lovel=044 hivel=052 amp_velcurve_052=1 lorand=0.500 hirand=1.000 sample=..\Wav\ZildMstrsnd-DynOpn06.wav
<region> lovel=053 hivel=066 amp_velcurve_066=1 sample=..\Wav\ZildMstrsnd-DynOpn07.wav
<region> lovel=067 hivel=072 amp_velcurve_072=1 sample=..\Wav\ZildMstrsnd-DynOpn08.wav
<region> lovel=073 hivel=085 amp_velcurve_085=1 sample=..\Wav\ZildMstrsnd-DynOpn09.wav
<region> lovel=086 hivel=090 amp_velcurve_089=1 lorand=0.000 hirand=0.500 sample=..\Wav\ZildMstrsnd-DynOpn10.wav
<region> lovel=086 hivel=090 amp_velcurve_090=1 lorand=0.500 hirand=1.000 sample=..\Wav\ZildMstrsnd-DynOpn11.wav
<region> lovel=091 hivel=095 amp_velcurve_095=1 sample=..\Wav\ZildMstrsnd-DynOpn12.wav
<region> lovel=096 hivel=102 amp_velcurve_102=1 sample=..\Wav\ZildMstrsnd-DynOpn13.wav
<region> lovel=103 hivel=116 amp_velcurve_116=1 sample=..\Wav\ZildMstrsnd-DynOpn14.wav
<region> lovel=117 hivel=119 amp_velcurve_119=1 sample=..\Wav\ZildMstrsnd-DynOpn15.wav
<region> lovel=120 hivel=127 amp_velcurve_127=1 sample=..\Wav\ZildMstrsnd-DynOpn16.wav

<group> volume=-6 loop_mode=one_shot key=46 off_by=1
<region> lovel=000 hivel=012 amp_velcurve_012=1 sample=..\Wav\ZildMstrsnd-DynOpn01.wav
<region> lovel=013 hivel=024 amp_velcurve_024=1 sample=..\Wav\ZildMstrsnd-DynOpn02.wav
<region> lovel=025 hivel=030 amp_velcurve_030=1 sample=..\Wav\ZildMstrsnd-DynOpn03.wav
<region> lovel=031 hivel=043 amp_velcurve_043=1 sample=..\Wav\ZildMstrsnd-DynOpn04.wav
<region> lovel=044 hivel=052 amp_velcurve_051=1 lorand=0.000 hirand=0.500 sample=..\Wav\ZildMstrsnd-DynOpn05.wav
<region> lovel=044 hivel=052 amp_velcurve_052=1 lorand=0.500 hirand=1.000 sample=..\Wav\ZildMstrsnd-DynOpn06.wav
<region> lovel=053 hivel=066 amp_velcurve_066=1 sample=..\Wav\ZildMstrsnd-DynOpn07.wav
<region> lovel=067 hivel=072 amp_velcurve_072=1 sample=..\Wav\ZildMstrsnd-DynOpn08.wav
<region> lovel=073 hivel=085 amp_velcurve_085=1 sample=..\Wav\ZildMstrsnd-DynOpn09.wav
<region> lovel=086 hivel=090 amp_velcurve_089=1 lorand=0.000 hirand=0.500 sample=..\Wav\ZildMstrsnd-DynOpn10.wav
<region> lovel=086 hivel=090 amp_velcurve_090=1 lorand=0.500 hirand=1.000 sample=..\Wav\ZildMstrsnd-DynOpn11.wav
<region> lovel=091 hivel=095 amp_velcurve_095=1 sample=..\Wav\ZildMstrsnd-DynOpn12.wav
<region> lovel=096 hivel=102 amp_velcurve_102=1 sample=..\Wav\ZildMstrsnd-DynOpn13.wav
<region> lovel=103 hivel=116 amp_velcurve_116=1 sample=..\Wav\ZildMstrsnd-DynOpn14.wav
<region> lovel=117 hivel=119 amp_velcurve_119=1 sample=..\Wav\ZildMstrsnd-DynOpn15.wav
<region> lovel=120 hivel=127 amp_velcurve_127=1 sample=..\Wav\ZildMstrsnd-DynOpn16.wav

// 022:  CLudwigTom2-DynLH01.wav (-48.20)
// 050:  CLudwigTom2-DynLH02.wav (-34.20)
// 062:  CLudwigTom2-DynLH03.wav (-30.40)
// 083:  CLudwigTom2-DynLH04.wav (-25.30)
// 090:  CLudwigTom2-DynLH05.wav (-23.90)
// 100:  CLudwigTom2-DynLH06.wav (-22.20)
// 104:  CLudwigTom2-DynLH07.wav (-21.40)
// 110:  CLudwigTom2-DynLH08.wav (-20.50)
// 114:  CLudwigTom2-DynLH09.wav (-19.80)
// 121:  CLudwigTom2-DynLH10.wav (-18.90)
// 122:  CLudwigTom2-DynLH12.wav (-18.70)
// 123:  CLudwigTom2-DynLH14.wav (-18.50)
// 123:  CLudwigTom2-DynLH15.wav (-18.50)
// 123:  CLudwigTom2-DynLH11.wav (-18.50)
// 124:  CLudwigTom2-DynLH13.wav (-18.40)
// 127:  CLudwigTom2-DynLH16.wav (-18.00)
<group> volume=-6 loop_mode=one_shot key=19
<region> lovel=001 hivel=022 amp_velcurve_022=1 sample=..\Wav\CLudwigTom2-DynLH01.wav
<region> lovel=023 hivel=050 amp_velcurve_050=1 sample=..\Wav\CLudwigTom2-DynLH02.wav
<region> lovel=051 hivel=062 amp_velcurve_062=1 sample=..\Wav\CLudwigTom2-DynLH03.wav
<region> lovel=063 hivel=083 amp_velcurve_083=1 sample=..\Wav\CLudwigTom2-DynLH04.wav
<region> lovel=084 hivel=090 amp_velcurve_090=1 sample=..\Wav\CLudwigTom2-DynLH05.wav
<region> lovel=091 hivel=100 amp_velcurve_100=1 sample=..\Wav\CLudwigTom2-DynLH06.wav
<region> lovel=101 hivel=104 amp_velcurve_104=1 sample=..\Wav\CLudwigTom2-DynLH07.wav
<region> lovel=105 hivel=110 amp_velcurve_110=1 sample=..\Wav\CLudwigTom2-DynLH08.wav
<region> lovel=111 hivel=114 amp_velcurve_114=1 sample=..\Wav\CLudwigTom2-DynLH09.wav
<region> lovel=115 hivel=122 amp_velcurve_121=1 lorand=0.000 hirand=0.500 sample=..\Wav\CLudwigTom2-DynLH10.wav
<region> lovel=115 hivel=122 amp_velcurve_122=1 lorand=0.500 hirand=1.000 sample=..\Wav\CLudwigTom2-DynLH12.wav
<region> lovel=123 hivel=123 amp_velcurve_123=1 lorand=0.000 hirand=0.250 sample=..\Wav\CLudwigTom2-DynLH14.wav
<region> lovel=124 hivel=124 amp_velcurve_123=1 lorand=0.250 hirand=0.500 sample=..\Wav\CLudwigTom2-DynLH15.wav
<region> lovel=125 hivel=125 amp_velcurve_123=1 lorand=0.500 hirand=0.750 sample=..\Wav\CLudwigTom2-DynLH11.wav
<region> lovel=126 hivel=126 amp_velcurve_124=1 lorand=0.750 hirand=1.000 sample=..\Wav\CLudwigTom2-DynLH13.wav
<region> lovel=127 hivel=127 amp_velcurve_127=1 sample=..\Wav\CLudwigTom2-DynLH16.wav

// 036:  CLudwigTom2-DynRH01.wav (-40.20)
// 044:  CLudwigTom2-DynRH02.wav (-36.70)
// 056:  CLudwigTom2-DynRH03.wav (-32.50)
// 066:  CLudwigTom2-DynRH04.wav (-29.70)
// 076:  CLudwigTom2-DynRH05.wav (-27.20)
// 084:  CLudwigTom2-DynRH06.wav (-25.40)
// 093:  CLudwigTom2-DynRH07.wav (-23.70)
// 100:  CLudwigTom2-DynRH08.wav (-22.50)
// 104:  CLudwigTom2-DynRH09.wav (-21.70)
// 109:  CLudwigTom2-DynRH10.wav (-20.90)
// 114:  CLudwigTom2-DynRH11.wav (-20.10)
// 118:  CLudwigTom2-DynRH12.wav (-19.60)
// 122:  CLudwigTom2-DynRH14.wav (-19.00)
// 123:  CLudwigTom2-DynRH13.wav (-18.90)
// 123:  CLudwigTom2-DynRH15.wav (-18.80)
// 127:  CLudwigTom2-DynRH16.wav (-18.30)
<group> volume=-6 loop_mode=one_shot key=43
<region> lovel=001 hivel=036 amp_velcurve_036=1 sample=..\Wav\CLudwigTom2-DynRH01.wav
<region> lovel=037 hivel=044 amp_velcurve_044=1 sample=..\Wav\CLudwigTom2-DynRH02.wav
<region> lovel=045 hivel=056 amp_velcurve_056=1 sample=..\Wav\CLudwigTom2-DynRH03.wav
<region> lovel=057 hivel=066 amp_velcurve_066=1 sample=..\Wav\CLudwigTom2-DynRH04.wav
<region> lovel=067 hivel=076 amp_velcurve_076=1 sample=..\Wav\CLudwigTom2-DynRH05.wav
<region> lovel=077 hivel=084 amp_velcurve_084=1 sample=..\Wav\CLudwigTom2-DynRH06.wav
<region> lovel=085 hivel=093 amp_velcurve_093=1 sample=..\Wav\CLudwigTom2-DynRH07.wav
<region> lovel=094 hivel=100 amp_velcurve_100=1 sample=..\Wav\CLudwigTom2-DynRH08.wav
<region> lovel=101 hivel=104 amp_velcurve_104=1 sample=..\Wav\CLudwigTom2-DynRH09.wav
<region> lovel=105 hivel=109 amp_velcurve_109=1 sample=..\Wav\CLudwigTom2-DynRH10.wav
<region> lovel=110 hivel=114 amp_velcurve_114=1 sample=..\Wav\CLudwigTom2-DynRH11.wav
<region> lovel=115 hivel=118 amp_velcurve_118=1 sample=..\Wav\CLudwigTom2-DynRH12.wav
<region> lovel=119 hivel=124 amp_velcurve_122=1 lorand=0.000 hirand=0.333 sample=..\Wav\CLudwigTom2-DynRH14.wav
<region> lovel=119 hivel=124 amp_velcurve_123=1 lorand=0.333 hirand=0.667 sample=..\Wav\CLudwigTom2-DynRH13.wav
<region> lovel=119 hivel=124 amp_velcurve_123=1 lorand=0.667 hirand=1.000 sample=..\Wav\CLudwigTom2-DynRH15.wav
<region> lovel=125 hivel=127 amp_velcurve_127=1 sample=..\Wav\CLudwigTom2-DynRH16.wav

// 024:  CLudwigTom1-DynLH01.wav (-48.10)
// 044:  CLudwigTom1-DynLH02.wav (-37.90)
// 053:  CLudwigTom1-DynLH03.wav (-34.60)
// 063:  CLudwigTom1-DynLH04.wav (-31.70)
// 077:  CLudwigTom1-DynLH05.wav (-28.10)
// 087:  CLudwigTom1-DynLH06.wav (-26.10)
// 104:  CLudwigTom1-DynLH07.wav (-23.00)
// 118:  CLudwigTom1-DynLH08.wav (-20.80)
// 121:  CLudwigTom1-DynLH09.wav (-20.30)
// 122:  CLudwigTom1-DynLH12.wav (-20.20)
// 122:  CLudwigTom1-DynLH11.wav (-20.20)
// 123:  CLudwigTom1-DynLH10.wav (-20.10)
// 125:  CLudwigTom1-DynLH13.wav (-19.80)
// 126:  CLudwigTom1-DynLH14.wav (-19.70)
// 126:  CLudwigTom1-DynLH15.wav (-19.60)
// 127:  CLudwigTom1-DynLH16.wav (-19.50)
<group> volume=-6 loop_mode=one_shot key=23
<region> lovel=001 hivel=024 amp_velcurve_024=1 sample=..\Wav\CLudwigTom1-DynLH01.wav
<region> lovel=025 hivel=044 amp_velcurve_044=1 sample=..\Wav\CLudwigTom1-DynLH02.wav
<region> lovel=045 hivel=053 amp_velcurve_053=1 sample=..\Wav\CLudwigTom1-DynLH03.wav
<region> lovel=054 hivel=063 amp_velcurve_063=1 sample=..\Wav\CLudwigTom1-DynLH04.wav
<region> lovel=064 hivel=077 amp_velcurve_077=1 sample=..\Wav\CLudwigTom1-DynLH05.wav
<region> lovel=078 hivel=087 amp_velcurve_087=1 sample=..\Wav\CLudwigTom1-DynLH06.wav
<region> lovel=088 hivel=104 amp_velcurve_104=1 sample=..\Wav\CLudwigTom1-DynLH07.wav
<region> lovel=105 hivel=118 amp_velcurve_118=1 sample=..\Wav\CLudwigTom1-DynLH08.wav
<region> lovel=119 hivel=123 amp_velcurve_121=1 lorand=0.000 hirand=0.250 sample=..\Wav\CLudwigTom1-DynLH09.wav
<region> lovel=119 hivel=123 amp_velcurve_122=1 lorand=0.250 hirand=0.500 sample=..\Wav\CLudwigTom1-DynLH12.wav
<region> lovel=119 hivel=123 amp_velcurve_122=1 lorand=0.500 hirand=0.750 sample=..\Wav\CLudwigTom1-DynLH11.wav
<region> lovel=119 hivel=123 amp_velcurve_123=1 lorand=0.750 hirand=1.000 sample=..\Wav\CLudwigTom1-DynLH10.wav
<region> lovel=124 hivel=127 amp_velcurve_125=1 lorand=0.000 hirand=0.250 sample=..\Wav\CLudwigTom1-DynLH13.wav
<region> lovel=124 hivel=127 amp_velcurve_126=1 lorand=0.250 hirand=0.500 sample=..\Wav\CLudwigTom1-DynLH14.wav
<region> lovel=124 hivel=127 amp_velcurve_126=1 lorand=0.500 hirand=0.750 sample=..\Wav\CLudwigTom1-DynLH15.wav
<region> lovel=124 hivel=127 amp_velcurve_127=1 lorand=0.750 hirand=1.000 sample=..\Wav\CLudwigTom1-DynLH16.wav

// 025:  CLudwigTom1-DynRH01.wav (-47.40)
// 046:  CLudwigTom1-DynRH02.wav (-36.70)
// 057:  CLudwigTom1-DynRH03.wav (-33.00)
// 068:  CLudwigTom1-DynRH04.wav (-30.00)
// 080:  CLudwigTom1-DynRH05.wav (-27.20)
// 093:  CLudwigTom1-DynRH06.wav (-24.50)
// 102:  CLudwigTom1-DynRH07.wav (-22.90)
// 114:  CLudwigTom1-DynRH08.wav (-21.00)
// 119:  CLudwigTom1-DynRH09.wav (-20.30)
// 120:  CLudwigTom1-DynRH10.wav (-20.10)
// 121:  CLudwigTom1-DynRH11.wav (-19.90)
// 122:  CLudwigTom1-DynRH14.wav (-19.80)
// 122:  CLudwigTom1-DynRH12.wav (-19.80)
// 123:  CLudwigTom1-DynRH15.wav (-19.70)
// 123:  CLudwigTom1-DynRH13.wav (-19.70)
// 127:  CLudwigTom1-DynRH16.wav (-19.10)
<group> volume=-6 loop_mode=one_shot key=47
<region> lovel=001 hivel=025 amp_velcurve_025=1 sample=..\Wav\CLudwigTom1-DynRH01.wav
<region> lovel=026 hivel=046 amp_velcurve_046=1 sample=..\Wav\CLudwigTom1-DynRH02.wav
<region> lovel=047 hivel=057 amp_velcurve_057=1 sample=..\Wav\CLudwigTom1-DynRH03.wav
<region> lovel=058 hivel=068 amp_velcurve_068=1 sample=..\Wav\CLudwigTom1-DynRH04.wav
<region> lovel=069 hivel=080 amp_velcurve_080=1 sample=..\Wav\CLudwigTom1-DynRH05.wav
<region> lovel=081 hivel=093 amp_velcurve_093=1 sample=..\Wav\CLudwigTom1-DynRH06.wav
<region> lovel=094 hivel=102 amp_velcurve_102=1 sample=..\Wav\CLudwigTom1-DynRH07.wav
<region> lovel=103 hivel=114 amp_velcurve_114=1 sample=..\Wav\CLudwigTom1-DynRH08.wav
<region> lovel=115 hivel=125 amp_velcurve_119=1 lorand=0.000 hirand=0.250 sample=..\Wav\CLudwigTom1-DynRH09.wav
<region> lovel=115 hivel=125 amp_velcurve_120=1 seq_length=1 seq_position=1 lorand=0.250 hirand=0.500 sample=..\Wav\CLudwigTom1-DynRH10.wav
<region> lovel=115 hivel=125 amp_velcurve_121=1 seq_length=1 seq_position=2 lorand=0.250 hirand=0.500 sample=..\Wav\CLudwigTom1-DynRH11.wav
<region> lovel=115 hivel=125 amp_velcurve_122=1 seq_length=1 seq_position=1 lorand=0.500 hirand=0.750 sample=..\Wav\CLudwigTom1-DynRH12.wav
<region> lovel=115 hivel=125 amp_velcurve_122=1 seq_length=1 seq_position=2 lorand=0.500 hirand=0.750 sample=..\Wav\CLudwigTom1-DynRH14.wav
<region> lovel=115 hivel=125 amp_velcurve_123=1 seq_length=1 seq_position=1 lorand=0.750 hirand=1.000 sample=..\Wav\CLudwigTom1-DynRH13.wav
<region> lovel=115 hivel=125 amp_velcurve_123=1 seq_length=1 seq_position=2 lorand=0.750 hirand=1.000 sample=..\Wav\CLudwigTom1-DynRH15.wav
<region> lovel=126 hivel=127 amp_velcurve_127=1 sample=..\Wav\CLudwigTom1-DynRH16.wav

// 025: ZildjinCrsh 2-Dyn02.wav (-51.70)
// 044: ZildjinCrsh 2-Dyn03.wav (-42.00)
// 066: ZildjinCrsh 2-Dyn04.wav (-35.00)
// 088: ZildjinCrsh 2-Dyn05.wav (-30.00)
// 097: ZildjinCrsh 2-Dyn06.wav (-28.30)
// 108: ZildjinCrsh 2-Dyn07.wav (-26.40)
// 121: ZildjinCrsh 2-Dyn09.wav (-24.50)
// 127: ZildjinCrsh 2-Dyn08.wav (-23.60)
<group> volume=-6 loop_mode=one_shot key=25
<region> lovel=001 hivel=025 amp_velcurve_025=1 sample=..\Wav\ZildjinCrsh 2-Dyn02.wav
<region> lovel=026 hivel=044 amp_velcurve_044=1 sample=..\Wav\ZildjinCrsh 2-Dyn03.wav
<region> lovel=045 hivel=066 amp_velcurve_066=1 sample=..\Wav\ZildjinCrsh 2-Dyn04.wav
<region> lovel=067 hivel=088 amp_velcurve_088=1 sample=..\Wav\ZildjinCrsh 2-Dyn05.wav
<region> lovel=089 hivel=097 amp_velcurve_097=1 sample=..\Wav\ZildjinCrsh 2-Dyn06.wav
<region> lovel=098 hivel=108 amp_velcurve_108=1 sample=..\Wav\ZildjinCrsh 2-Dyn07.wav
<region> lovel=109 hivel=121 amp_velcurve_121=1 sample=..\Wav\ZildjinCrsh 2-Dyn09.wav
<region> lovel=122 hivel=127 amp_velcurve_127=1 sample=..\Wav\ZildjinCrsh 2-Dyn08.wav
<group> volume=-6 loop_mode=one_shot key=49
<region> lovel=001 hivel=025 amp_velcurve_025=1 sample=..\Wav\ZildjinCrsh 2-Dyn02.wav
<region> lovel=026 hivel=044 amp_velcurve_044=1 sample=..\Wav\ZildjinCrsh 2-Dyn03.wav
<region> lovel=045 hivel=066 amp_velcurve_066=1 sample=..\Wav\ZildjinCrsh 2-Dyn04.wav
<region> lovel=067 hivel=088 amp_velcurve_088=1 sample=..\Wav\ZildjinCrsh 2-Dyn05.wav
<region> lovel=089 hivel=097 amp_velcurve_097=1 sample=..\Wav\ZildjinCrsh 2-Dyn06.wav
<region> lovel=098 hivel=108 amp_velcurve_108=1 sample=..\Wav\ZildjinCrsh 2-Dyn07.wav
<region> lovel=109 hivel=121 amp_velcurve_121=1 sample=..\Wav\ZildjinCrsh 2-Dyn09.wav
<region> lovel=122 hivel=127 amp_velcurve_127=1 sample=..\Wav\ZildjinCrsh 2-Dyn08.wav

// 019:  SabHHXEvo20-Dyn01.wav (-59.40)
// 032:  SabHHXEvo20-Dyn02.wav (-50.20)
// 045:  SabHHXEvo20-Dyn03.wav (-44.20)
// 058:  SabHHXEvo20-Dyn04.wav (-39.80)
// 067:  SabHHXEvo20-Dyn05.wav (-37.10)
// 077:  SabHHXEvo20-Dyn06.wav (-34.80)
// 083:  SabHHXEvo20-Dyn10.wav (-33.50)
// 084:  SabHHXEvo20-Dyn07.wav (-33.20)
// 088:  SabHHXEvo20-Dyn12.wav (-32.50)
// 091:  SabHHXEvo20-Dyn13.wav (-31.90)
// 092:  SabHHXEvo20-Dyn14.wav (-31.70)
// 093:  SabHHXEvo20-Dyn09.wav (-31.60)
// 095:  SabHHXEvo20-Dyn08.wav (-31.10)
// 097:  SabHHXEvo20-Dyn11.wav (-30.70)
// 120:  SabHHXEvo20-Dyn15.wav (-27.10)
// 127:  SabHHXEvo20-Dyn17.wav (-26.10)
<group> volume=-6 loop_mode=one_shot key=27
<region> lovel=001 hivel=019 amp_velcurve_019=1 sample=..\Wav\SabHHXEvo20-Dyn01.wav
<region> lovel=020 hivel=032 amp_velcurve_032=1 sample=..\Wav\SabHHXEvo20-Dyn02.wav
<region> lovel=033 hivel=045 amp_velcurve_045=1 sample=..\Wav\SabHHXEvo20-Dyn03.wav
<region> lovel=046 hivel=058 amp_velcurve_058=1 sample=..\Wav\SabHHXEvo20-Dyn04.wav
<region> lovel=059 hivel=067 amp_velcurve_067=1 sample=..\Wav\SabHHXEvo20-Dyn05.wav
<region> lovel=068 hivel=077 amp_velcurve_077=1 sample=..\Wav\SabHHXEvo20-Dyn06.wav
<region> lovel=078 hivel=083 amp_velcurve_083=1 sample=..\Wav\SabHHXEvo20-Dyn10.wav
<region> lovel=084 hivel=084 amp_velcurve_084=1 sample=..\Wav\SabHHXEvo20-Dyn07.wav
<region> lovel=085 hivel=088 amp_velcurve_088=1 sample=..\Wav\SabHHXEvo20-Dyn12.wav
<region> lovel=089 hivel=097 amp_velcurve_091=1 lorand=0.000 hirand=0.200 sample=..\Wav\SabHHXEvo20-Dyn13.wav
<region> lovel=089 hivel=097 amp_velcurve_092=1 lorand=0.200 hirand=0.400 sample=..\Wav\SabHHXEvo20-Dyn14.wav
<region> lovel=089 hivel=097 amp_velcurve_093=1 lorand=0.400 hirand=0.600 sample=..\Wav\SabHHXEvo20-Dyn09.wav
<region> lovel=089 hivel=097 amp_velcurve_095=1 lorand=0.600 hirand=0.800 sample=..\Wav\SabHHXEvo20-Dyn08.wav
<region> lovel=089 hivel=097 amp_velcurve_097=1 lorand=0.800 hirand=1.000 sample=..\Wav\SabHHXEvo20-Dyn11.wav
<region> lovel=098 hivel=120 amp_velcurve_120=1 sample=..\Wav\SabHHXEvo20-Dyn15.wav
<region> lovel=121 hivel=127 amp_velcurve_127=1 sample=..\Wav\SabHHXEvo20-Dyn17.wav

<group> volume=-6 loop_mode=one_shot key=51
<region> lovel=001 hivel=019 amp_velcurve_019=1 sample=..\Wav\SabHHXEvo20-Dyn01.wav
<region> lovel=020 hivel=032 amp_velcurve_032=1 sample=..\Wav\SabHHXEvo20-Dyn02.wav
<region> lovel=033 hivel=045 amp_velcurve_045=1 sample=..\Wav\SabHHXEvo20-Dyn03.wav
<region> lovel=046 hivel=058 amp_velcurve_058=1 sample=..\Wav\SabHHXEvo20-Dyn04.wav
<region> lovel=059 hivel=067 amp_velcurve_067=1 sample=..\Wav\SabHHXEvo20-Dyn05.wav
<region> lovel=068 hivel=077 amp_velcurve_077=1 sample=..\Wav\SabHHXEvo20-Dyn06.wav
<region> lovel=078 hivel=083 amp_velcurve_083=1 sample=..\Wav\SabHHXEvo20-Dyn10.wav
<region> lovel=084 hivel=084 amp_velcurve_084=1 sample=..\Wav\SabHHXEvo20-Dyn07.wav
<region> lovel=085 hivel=088 amp_velcurve_088=1 sample=..\Wav\SabHHXEvo20-Dyn12.wav
<region> lovel=089 hivel=097 amp_velcurve_091=1 lorand=0.000 hirand=0.200 sample=..\Wav\SabHHXEvo20-Dyn13.wav
<region> lovel=089 hivel=097 amp_velcurve_092=1 lorand=0.200 hirand=0.400 sample=..\Wav\SabHHXEvo20-Dyn14.wav
<region> lovel=089 hivel=097 amp_velcurve_093=1 lorand=0.400 hirand=0.600 sample=..\Wav\SabHHXEvo20-Dyn09.wav
<region> lovel=089 hivel=097 amp_velcurve_095=1 lorand=0.600 hirand=0.800 sample=..\Wav\SabHHXEvo20-Dyn08.wav
<region> lovel=089 hivel=097 amp_velcurve_097=1 lorand=0.800 hirand=1.000 sample=..\Wav\SabHHXEvo20-Dyn11.wav
<region> lovel=098 hivel=120 amp_velcurve_120=1 sample=..\Wav\SabHHXEvo20-Dyn15.wav
<region> lovel=121 hivel=127 amp_velcurve_127=1 sample=..\Wav\SabHHXEvo20-Dyn17.wav

// 015:  SabHHXEvo20_Bell01.wav (-58.70)
// 026:  SabHHXEvo20_Bell02.wav (-49.00)
// 037:  SabHHXEvo20_Bell03.wav (-43.20)
// 047:  SabHHXEvo20_Bell04.wav (-38.80)
// 051:  SabHHXEvo20_Bell06.wav (-37.60)
// 061:  SabHHXEvo20_Bell05.wav (-34.40)
// 061:  SabHHXEvo20_Bell08.wav (-34.30)
// 090:  SabHHXEvo20_Bell12.wav (-27.50)
// 095:  SabHHXEvo20_Bell10.wav (-26.60)
// 096:  SabHHXEvo20_Bell09.wav (-26.50)
// 099:  SabHHXEvo20_Bell17.wav (-26.00)
// 101:  SabHHXEvo20_Bell11.wav (-25.50)
// 107:  SabHHXEvo20_Bell13.wav (-24.60)
// 117:  SabHHXEvo20_Bell15.wav (-23.00)
// 119:  SabHHXEvo20_Bell16.wav (-22.80)
// 127:  SabHHXEvo20_Bell14.wav (-21.60)
<group> volume=-6 loop_mode=one_shot key=29
<region> lovel=001 hivel=015 amp_velcurve_015=1 sample=..\Wav\SabHHXEvo20_Bell01.wav
<region> lovel=016 hivel=026 amp_velcurve_026=1 sample=..\Wav\SabHHXEvo20_Bell02.wav
<region> lovel=027 hivel=037 amp_velcurve_037=1 sample=..\Wav\SabHHXEvo20_Bell03.wav
<region> lovel=038 hivel=047 amp_velcurve_047=1 sample=..\Wav\SabHHXEvo20_Bell04.wav
<region> lovel=048 hivel=051 amp_velcurve_051=1 sample=..\Wav\SabHHXEvo20_Bell06.wav
<region> lovel=052 hivel=061 amp_velcurve_061=1 lorand=0.000 hirand=0.500 sample=..\Wav\SabHHXEvo20_Bell05.wav
<region> lovel=052 hivel=061 amp_velcurve_061=1 lorand=0.500 hirand=1.000 sample=..\Wav\SabHHXEvo20_Bell08.wav
<region> lovel=062 hivel=090 amp_velcurve_090=1 sample=..\Wav\SabHHXEvo20_Bell12.wav
<region> lovel=091 hivel=107 amp_velcurve_095=1 lorand=0.000 hirand=0.200 sample=..\Wav\SabHHXEvo20_Bell10.wav
<region> lovel=091 hivel=107 amp_velcurve_096=1 lorand=0.200 hirand=0.400 sample=..\Wav\SabHHXEvo20_Bell09.wav
<region> lovel=091 hivel=107 amp_velcurve_099=1 lorand=0.400 hirand=0.600 sample=..\Wav\SabHHXEvo20_Bell17.wav
<region> lovel=091 hivel=107 amp_velcurve_101=1 lorand=0.600 hirand=0.800 sample=..\Wav\SabHHXEvo20_Bell11.wav
<region> lovel=091 hivel=107 amp_velcurve_107=1 lorand=0.800 hirand=1.000 sample=..\Wav\SabHHXEvo20_Bell13.wav
<region> lovel=108 hivel=117 amp_velcurve_117=1 sample=..\Wav\SabHHXEvo20_Bell15.wav
<region> lovel=118 hivel=119 amp_velcurve_119=1 sample=..\Wav\SabHHXEvo20_Bell16.wav
<region> lovel=120 hivel=127 amp_velcurve_127=1 sample=..\Wav\SabHHXEvo20_Bell14.wav

<group> volume=-6 loop_mode=one_shot key=53
<region> lovel=001 hivel=015 amp_velcurve_015=1 sample=..\Wav\SabHHXEvo20_Bell01.wav
<region> lovel=016 hivel=026 amp_velcurve_026=1 sample=..\Wav\SabHHXEvo20_Bell02.wav
<region> lovel=027 hivel=037 amp_velcurve_037=1 sample=..\Wav\SabHHXEvo20_Bell03.wav
<region> lovel=038 hivel=047 amp_velcurve_047=1 sample=..\Wav\SabHHXEvo20_Bell04.wav
<region> lovel=048 hivel=051 amp_velcurve_051=1 sample=..\Wav\SabHHXEvo20_Bell06.wav
<region> lovel=052 hivel=061 amp_velcurve_061=1 lorand=0.000 hirand=0.500 sample=..\Wav\SabHHXEvo20_Bell05.wav
<region> lovel=052 hivel=061 amp_velcurve_061=1 lorand=0.500 hirand=1.000 sample=..\Wav\SabHHXEvo20_Bell08.wav
<region> lovel=062 hivel=090 amp_velcurve_090=1 sample=..\Wav\SabHHXEvo20_Bell12.wav
<region> lovel=091 hivel=107 amp_velcurve_095=1 lorand=0.000 hirand=0.200 sample=..\Wav\SabHHXEvo20_Bell10.wav
<region> lovel=091 hivel=107 amp_velcurve_096=1 lorand=0.200 hirand=0.400 sample=..\Wav\SabHHXEvo20_Bell09.wav
<region> lovel=091 hivel=107 amp_velcurve_099=1 lorand=0.400 hirand=0.600 sample=..\Wav\SabHHXEvo20_Bell17.wav
<region> lovel=091 hivel=107 amp_velcurve_101=1 lorand=0.600 hirand=0.800 sample=..\Wav\SabHHXEvo20_Bell11.wav
<region> lovel=091 hivel=107 amp_velcurve_107=1 lorand=0.800 hirand=1.000 sample=..\Wav\SabHHXEvo20_Bell13.wav
<region> lovel=108 hivel=117 amp_velcurve_117=1 sample=..\Wav\SabHHXEvo20_Bell15.wav
<region> lovel=118 hivel=119 amp_velcurve_119=1 sample=..\Wav\SabHHXEvo20_Bell16.wav
<region> lovel=120 hivel=127 amp_velcurve_127=1 sample=..\Wav\SabHHXEvo20_Bell14.wav

// 032: ZildjinCrsh 1-Dyn02.wav (-47.50)
// 045: ZildjinCrsh 1-Dyn03.wav (-41.50)
// 064: ZildjinCrsh 1-Dyn04.wav (-35.40)
// 081: ZildjinCrsh 1-Dyn05.wav (-31.50)
// 094: ZildjinCrsh 1-Dyn06.wav (-28.90)
// 119: ZildjinCrsh 1-Dyn09.wav (-24.70)
// 123: ZildjinCrsh 1-Dyn07.wav (-24.10)
// 127: ZildjinCrsh 1-Dyn08.wav (-23.60)
<group> volume=-6 loop_mode=one_shot key=33
<region> lovel=001 hivel=032 amp_velcurve_032=1 sample=..\Wav\ZildjinCrsh 1-Dyn02.wav
<region> lovel=033 hivel=045 amp_velcurve_045=1 sample=..\Wav\ZildjinCrsh 1-Dyn03.wav
<region> lovel=046 hivel=064 amp_velcurve_064=1 sample=..\Wav\ZildjinCrsh 1-Dyn04.wav
<region> lovel=065 hivel=081 amp_velcurve_081=1 sample=..\Wav\ZildjinCrsh 1-Dyn05.wav
<region> lovel=082 hivel=094 amp_velcurve_094=1 sample=..\Wav\ZildjinCrsh 1-Dyn06.wav
<region> lovel=095 hivel=119 amp_velcurve_119=1 sample=..\Wav\ZildjinCrsh 1-Dyn09.wav
<region> lovel=120 hivel=123 amp_velcurve_123=1 sample=..\Wav\ZildjinCrsh 1-Dyn07.wav
<region> lovel=124 hivel=127 amp_velcurve_127=1 sample=..\Wav\ZildjinCrsh 1-Dyn08.wav

<group> volume=-6 loop_mode=one_shot key=57
<region> lovel=001 hivel=032 amp_velcurve_032=1 sample=..\Wav\ZildjinCrsh 1-Dyn02.wav
<region> lovel=033 hivel=045 amp_velcurve_045=1 sample=..\Wav\ZildjinCrsh 1-Dyn03.wav
<region> lovel=046 hivel=064 amp_velcurve_064=1 sample=..\Wav\ZildjinCrsh 1-Dyn04.wav
<region> lovel=065 hivel=081 amp_velcurve_081=1 sample=..\Wav\ZildjinCrsh 1-Dyn05.wav
<region> lovel=082 hivel=094 amp_velcurve_094=1 sample=..\Wav\ZildjinCrsh 1-Dyn06.wav
<region> lovel=095 hivel=119 amp_velcurve_119=1 sample=..\Wav\ZildjinCrsh 1-Dyn09.wav
<region> lovel=120 hivel=123 amp_velcurve_123=1 sample=..\Wav\ZildjinCrsh 1-Dyn07.wav
<region> lovel=124 hivel=127 amp_velcurve_127=1 sample=..\Wav\ZildjinCrsh 1-Dyn08.wav
